<svg width="1200" height="800" viewBox="0 0 1200 800" fill="none" xmlns="http://www.w3.org/2000/svg">
  <!-- Background -->
  <rect width="1200" height="800" fill="#0B0F19"/>

  <!-- Grid lines -->
  <line x1="400" y1="80" x2="400" y2="720" stroke="#1E293B" stroke-width="1"/>
  <line x1="800" y1="80" x2="800" y2="720" stroke="#1E293B" stroke-width="1"/>
  <line x1="40" y1="280" x2="1160" y2="280" stroke="#1E293B" stroke-width="1"/>
  <line x1="40" y1="480" x2="1160" y2="480" stroke="#1E293B" stroke-width="1"/>

  <!-- Metric Card 1 - Visitors -->
  <rect x="60" y="100" width="300" height="140" rx="16" fill="#111827" stroke="#1F2937" stroke-width="1"/>
  <text x="80" y="135" fill="#9CA3AF" font-family="monospace" font-size="12">VISITORS</text>
  <text x="80" y="175" fill="#FFFFFF" font-family="sans-serif" font-size="36" font-weight="bold">2,847</text>
  <text x="200" y="175" fill="#10B981" font-family="monospace" font-size="14">+23%</text>
  <rect x="80" y="195" width="260" height="30" rx="4" fill="#1F2937"/>
  <rect x="80" y="195" width="180" height="30" rx="4" fill="#10B981" opacity="0.3"/>

  <!-- Metric Card 2 - AI Conversations -->
  <rect x="420" y="100" width="300" height="140" rx="16" fill="#111827" stroke="#1F2937" stroke-width="1"/>
  <text x="440" y="135" fill="#9CA3AF" font-family="monospace" font-size="12">AI CONVERSATIONS</text>
  <text x="440" y="175" fill="#FFFFFF" font-family="sans-serif" font-size="36" font-weight="bold">1,204</text>
  <text x="560" y="175" fill="#10B981" font-family="monospace" font-size="14">+41%</text>
  <rect x="440" y="195" width="260" height="30" rx="4" fill="#1F2937"/>
  <rect x="440" y="195" width="200" height="30" rx="4" fill="#10B981" opacity="0.3"/>

  <!-- Metric Card 3 - Conversions -->
  <rect x="780" y="100" width="300" height="140" rx="16" fill="#111827" stroke="#1F2937" stroke-width="1"/>
  <text x="800" y="135" fill="#9CA3AF" font-family="monospace" font-size="12">CONVERSIONS</text>
  <text x="800" y="175" fill="#FFFFFF" font-family="sans-serif" font-size="36" font-weight="bold">312</text>
  <text x="880" y="175" fill="#10B981" font-family="monospace" font-size="14">+18%</text>
  <rect x="800" y="195" width="260" height="30" rx="4" fill="#1F2937"/>
  <rect x="800" y="195" width="150" height="30" rx="4" fill="#10B981" opacity="0.3"/>

  <!-- Metric Card 4 - Cost -->
  <rect x="60" y="300" width="300" height="140" rx="16" fill="#111827" stroke="#1F2937" stroke-width="1"/>
  <text x="80" y="335" fill="#9CA3AF" font-family="monospace" font-size="12">COST / DAY</text>
  <text x="80" y="375" fill="#FFFFFF" font-family="sans-serif" font-size="36" font-weight="bold">$47.20</text>
  <text x="200" y="375" fill="#6B7280" font-family="monospace" font-size="14">-12%</text>
  <rect x="80" y="395" width="260" height="30" rx="4" fill="#1F2937"/>
  <rect x="80" y="395" width="100" height="30" rx="4" fill="#10B981" opacity="0.3"/>

  <!-- Chart Area -->
  <rect x="420" y="300" width="660" height="380" rx="16" fill="#111827" stroke="#1F2937" stroke-width="1"/>
  <text x="440" y="335" fill="#9CA3AF" font-family="monospace" font-size="12">CONVERSATIONS / HOUR</text>

  <!-- Chart bars -->
  <rect x="460" y="380" width="30" height="80" rx="4" fill="#10B981" opacity="0.4"/>
  <rect x="510" y="360" width="30" height="100" rx="4" fill="#10B981" opacity="0.5"/>
  <rect x="560" y="340" width="30" height="120" rx="4" fill="#10B981" opacity="0.6"/>
  <rect x="610" y="370" width="30" height="90" rx="4" fill="#10B981" opacity="0.5"/>
  <rect x="660" y="320" width="30" height="140" rx="4" fill="#10B981" opacity="0.7"/>
  <rect x="710" y="350" width="30" height="110" rx="4" fill="#10B981" opacity="0.6"/>
  <rect x="760" y="300" width="30" height="160" rx="4" fill="#10B981" opacity="0.8"/>
  <rect x="810" y="330" width="30" height="130" rx="4" fill="#10B981" opacity="0.7"/>
  <rect x="860" y="310" width="30" height="150" rx="4" fill="#10B981" opacity="0.75"/>
  <rect x="910" y="340" width="30" height="120" rx="4" fill="#10B981" opacity="0.6"/>
  <rect x="960" y="360" width="30" height="100" rx="4" fill="#10B981" opacity="0.5"/>
  <rect x="1010" y="320" width="30" height="140" rx="4" fill="#10B981" opacity="0.7"/>

  <!-- Activity Feed -->
  <rect x="60" y="480" width="300" height="200" rx="16" fill="#111827" stroke="#1F2937" stroke-width="1"/>
  <text x="80" y="515" fill="#9CA3AF" font-family="monospace" font-size="12">LIVE ACTIVITY</text>

  <!-- Activity items -->
  <rect x="80" y="535" width="8" height="8" rx="2" fill="#10B981"/>
  <text x="96" y="543" fill="#6B7280" font-family="monospace" font-size="10">14:32:18</text>
  <text x="160" y="543" fill="#9CA3AF" font-family="monospace" font-size="10">Sales Agent → Lead scored</text>

  <rect x="80" y="555" width="8" height="8" rx="2" fill="#10B981"/>
  <text x="96" y="563" fill="#6B7280" font-family="monospace" font-size="10">14:32:21</text>
  <text x="160" y="563" fill="#9CA3AF" font-family="monospace" font-size="10">Support → Ticket #4891</text>

  <rect x="80" y="575" width="8" height="8" rx="2" fill="#10B981"/>
  <text x="96" y="583" fill="#6B7280" font-family="monospace" font-size="10">14:32:24</text>
  <text x="160" y="583" fill="#9CA3AF" font-family="monospace" font-size="10">Analytics → Report gen</text>

  <rect x="80" y="595" width="8" height="8" rx="2" fill="#10B981"/>
  <text x="96" y="603" fill="#6B7280" font-family="monospace" font-size="10">14:32:27</text>
  <text x="160" y="603" fill="#9CA3AF" font-family="monospace" font-size="10">CEO Agent → Spawned sub</text>

  <rect x="80" y="615" width="8" height="8" rx="2" fill="#10B981"/>
  <text x="96" y="623" fill="#6B7280" font-family="monospace" font-size="10">14:32:30</text>
  <text x="160" y="623" fill="#9CA3AF" font-family="monospace" font-size="10">Sales Agent → Email sent</text>

  <!-- Status indicators -->
  <circle cx="1140" cy="40" r="6" fill="#10B981"/>
  <text x="1080" y="44" fill="#10B981" font-family="monospace" font-size="11">SYSTEMS OPERATIONAL</text>

  <!-- Header -->
  <text x="40" y="50" fill="#FFFFFF" font-family="sans-serif" font-size="20" font-weight="bold">Viktron Analytics</text>
  <text x="200" y="50" fill="#6B7280" font-family="monospace" font-size="11">app.viktron.ai</text>
</svg>
