<svg width="1600" height="1200" viewBox="0 0 1600 1200" fill="none" xmlns="http://www.w3.org/2000/svg">
  <defs>
    <radialGradient id="g1" cx="0" cy="0" r="1" gradientUnits="userSpaceOnUse" gradientTransform="translate(280 210) rotate(12) scale(540 420)">
      <stop stop-color="#6D97F9" stop-opacity="0.46"/>
      <stop offset="1" stop-color="#6D97F9" stop-opacity="0"/>
    </radialGradient>
    <radialGradient id="g2" cx="0" cy="0" r="1" gradientUnits="userSpaceOnUse" gradientTransform="translate(1320 320) rotate(-14) scale(520 380)">
      <stop stop-color="#67D8B0" stop-opacity="0.42"/>
      <stop offset="1" stop-color="#67D8B0" stop-opacity="0"/>
    </radialGradient>
    <radialGradient id="g3" cx="0" cy="0" r="1" gradientUnits="userSpaceOnUse" gradientTransform="translate(820 970) rotate(180) scale(680 360)">
      <stop stop-color="#85A9F7" stop-opacity="0.22"/>
      <stop offset="1" stop-color="#85A9F7" stop-opacity="0"/>
    </radialGradient>
    <linearGradient id="line" x1="140" y1="180" x2="1380" y2="980" gradientUnits="userSpaceOnUse">
      <stop stop-color="#4A77E8" stop-opacity="0.44"/>
      <stop offset="1" stop-color="#58C8A4" stop-opacity="0.28"/>
    </linearGradient>
    <filter id="blur" x="-60" y="-60" width="1720" height="1320" filterUnits="userSpaceOnUse" color-interpolation-filters="sRGB">
      <feGaussianBlur stdDeviation="22"/>
    </filter>
  </defs>

  <rect width="1600" height="1200" fill="#F5F8FD"/>
  <ellipse cx="280" cy="210" rx="540" ry="420" fill="url(#g1)"/>
  <ellipse cx="1320" cy="320" rx="520" ry="380" fill="url(#g2)"/>
  <ellipse cx="820" cy="970" rx="680" ry="360" fill="url(#g3)"/>

  <g opacity="0.72" filter="url(#blur)">
    <path d="M120 860C290 660 420 560 580 560C760 560 900 760 1080 760C1240 760 1340 650 1480 470" stroke="url(#line)" stroke-width="7" stroke-linecap="round"/>
    <path d="M180 980C340 780 490 690 690 690C870 690 1010 850 1190 850C1320 850 1420 790 1520 690" stroke="url(#line)" stroke-width="5" stroke-linecap="round" opacity="0.68"/>
  </g>
</svg>
