<svg width="1200" height="630" viewBox="0 0 1200 630" fill="none" xmlns="http://www.w3.org/2000/svg">
  <defs>
    <linearGradient id="bg" x1="0%" y1="0%" x2="100%" y2="100%">
      <stop offset="0%" stop-color="#0a0a0f"/>
      <stop offset="50%" stop-color="#121218"/>
      <stop offset="100%" stop-color="#0a0a0f"/>
    </linearGradient>
    <linearGradient id="accent" x1="0%" y1="0%" x2="100%" y2="0%">
      <stop offset="0%" stop-color="#0ea5e9"/>
      <stop offset="50%" stop-color="#8b5cf6"/>
      <stop offset="100%" stop-color="#0ea5e9"/>
    </linearGradient>
    <linearGradient id="logo_grad" x1="0%" y1="0%" x2="100%" y2="100%">
      <stop offset="0%" stop-color="rgba(56, 189, 248, 0.6)"/>
      <stop offset="100%" stop-color="rgba(30, 58, 138, 0.9)"/>
    </linearGradient>
  </defs>
  
  <!-- Background -->
  <rect width="1200" height="630" fill="url(#bg)"/>
  
  <!-- Grid pattern -->
  <g opacity="0.05">
    <line x1="0" y1="0" x2="0" y2="630" stroke="white" stroke-width="1"/>
    <line x1="100" y1="0" x2="100" y2="630" stroke="white" stroke-width="1"/>
    <line x1="200" y1="0" x2="200" y2="630" stroke="white" stroke-width="1"/>
    <line x1="300" y1="0" x2="300" y2="630" stroke="white" stroke-width="1"/>
    <line x1="400" y1="0" x2="400" y2="630" stroke="white" stroke-width="1"/>
    <line x1="500" y1="0" x2="500" y2="630" stroke="white" stroke-width="1"/>
    <line x1="600" y1="0" x2="600" y2="630" stroke="white" stroke-width="1"/>
    <line x1="700" y1="0" x2="700" y2="630" stroke="white" stroke-width="1"/>
    <line x1="800" y1="0" x2="800" y2="630" stroke="white" stroke-width="1"/>
    <line x1="900" y1="0" x2="900" y2="630" stroke="white" stroke-width="1"/>
    <line x1="1000" y1="0" x2="1000" y2="630" stroke="white" stroke-width="1"/>
    <line x1="1100" y1="0" x2="1100" y2="630" stroke="white" stroke-width="1"/>
    <line x1="1200" y1="0" x2="1200" y2="630" stroke="white" stroke-width="1"/>
    <line x1="0" y1="0" x2="1200" y2="0" stroke="white" stroke-width="1"/>
    <line x1="0" y1="100" x2="1200" y2="100" stroke="white" stroke-width="1"/>
    <line x1="0" y1="200" x2="1200" y2="200" stroke="white" stroke-width="1"/>
    <line x1="0" y1="300" x2="1200" y2="300" stroke="white" stroke-width="1"/>
    <line x1="0" y1="400" x2="1200" y2="400" stroke="white" stroke-width="1"/>
    <line x1="0" y1="500" x2="1200" y2="500" stroke="white" stroke-width="1"/>
    <line x1="0" y1="630" x2="1200" y2="630" stroke="white" stroke-width="1"/>
  </g>
  
  <!-- Glowing orbs -->
  <circle cx="200" cy="150" r="150" fill="#0ea5e9" opacity="0.1" filter="blur(60px)"/>
  <circle cx="1000" cy="500" r="180" fill="#8b5cf6" opacity="0.1" filter="blur(80px)"/>
  <circle cx="600" cy="315" r="200" fill="#0ea5e9" opacity="0.05" filter="blur(100px)"/>
  
  <!-- Logo -->
  <g transform="translate(500, 140)">
    <circle cx="100" cy="100" r="90" fill="url(#logo_grad)" stroke="rgba(255,255,255,0.2)" stroke-width="3"/>
    <ellipse cx="70" cy="60" rx="25" ry="12" fill="rgba(255,255,255,0.1)" transform="rotate(-30, 70, 60)"/>
    <path d="M40 170L65 135L85 150L130 95L150 115L185 60" stroke="white" stroke-width="10" stroke-linecap="round" stroke-linejoin="round" opacity="0.9"/>
    <path d="M40 170L65 135L85 150L130 95L150 115L185 60" stroke="#0ea5e9" stroke-width="8" stroke-linecap="round" stroke-linejoin="round"/>
    <path d="M185 60L155 68M185 60L178 88" stroke="#0ea5e9" stroke-width="8" stroke-linecap="round" stroke-linejoin="round"/>
  </g>
  
  <!-- Title -->
  <text x="600" y="380" text-anchor="middle" font-family="system-ui, -apple-system, sans-serif" font-size="72" font-weight="800" fill="white">
    Viktron.ai
  </text>
  
  <!-- Subtitle -->
  <text x="600" y="440" text-anchor="middle" font-family="system-ui, -apple-system, sans-serif" font-size="28" font-weight="500" fill="#0ea5e9">
    AI Agency for Business Automation
  </text>
  
  <!-- Tagline -->
  <text x="600" y="490" text-anchor="middle" font-family="system-ui, -apple-system, sans-serif" font-size="20" fill="rgba(255,255,255,0.6)">
    Custom AI Agents • Chatbots • Marketing Automation • Voice AI
  </text>
  
  <!-- Bottom accent line -->
  <rect x="400" y="540" width="400" height="4" rx="2" fill="url(#accent)"/>
  
  <!-- Website -->
  <text x="600" y="585" text-anchor="middle" font-family="system-ui, -apple-system, sans-serif" font-size="18" fill="rgba(255,255,255,0.4)">
    viktron.ai
  </text>
</svg>
