<svg width="512" height="512" viewBox="0 0 512 512" fill="none" xmlns="http://www.w3.org/2000/svg">
  <defs>
    <linearGradient id="bg" x1="64" y1="40" x2="448" y2="472" gradientUnits="userSpaceOnUse">
      <stop stop-color="#121927"/>
      <stop offset="1" stop-color="#1A263B"/>
    </linearGradient>
    <linearGradient id="vgrad" x1="144" y1="136" x2="372" y2="370" gradientUnits="userSpaceOnUse">
      <stop stop-color="#E4FF8C"/>
      <stop offset="1" stop-color="#46BC8A"/>
    </linearGradient>
    <radialGradient id="glow" cx="0" cy="0" r="1" gradientUnits="userSpaceOnUse" gradientTransform="translate(362 152) rotate(90) scale(120)">
      <stop stop-color="#DFFF92" stop-opacity="0.52"/>
      <stop offset="1" stop-color="#DFFF92" stop-opacity="0"/>
    </radialGradient>
  </defs>

  <rect x="24" y="24" width="464" height="464" rx="136" fill="url(#bg)"/>
  <rect x="24" y="24" width="464" height="464" rx="136" stroke="#2D3A54" stroke-width="10"/>
  <rect x="24" y="24" width="464" height="464" rx="136" fill="url(#glow)"/>

  <path d="M144 142L230 348C235 360 245 366 256 366C267 366 277 360 282 348L368 142"
        stroke="url(#vgrad)" stroke-width="44" stroke-linecap="round" stroke-linejoin="round"/>

  <path d="M272 294L336 210" stroke="url(#vgrad)" stroke-width="26" stroke-linecap="round"/>
  <path d="M336 210L312 213M336 210L333 234" stroke="url(#vgrad)" stroke-width="18" stroke-linecap="round"/>

  <circle cx="368" cy="146" r="16" fill="#E4FF8C"/>
  <circle cx="368" cy="146" r="6" fill="#1A263B"/>
</svg>
