<svg width="512" height="512" viewBox="0 0 512 512" fill="none" xmlns="http://www.w3.org/2000/svg">
  <defs>
    <linearGradient id="bg" x1="64" y1="44" x2="448" y2="476" gradientUnits="userSpaceOnUse">
      <stop stop-color="#121A2A"/>
      <stop offset="1" stop-color="#1A263D"/>
    </linearGradient>
    <linearGradient id="core" x1="122" y1="98" x2="390" y2="414" gradientUnits="userSpaceOnUse">
      <stop stop-color="#E8FF92"/>
      <stop offset="1" stop-color="#4BBC89"/>
    </linearGradient>
    <linearGradient id="ring" x1="90" y1="70" x2="430" y2="440" gradientUnits="userSpaceOnUse">
      <stop stop-color="#8EA5D8" stop-opacity="0.75"/>
      <stop offset="1" stop-color="#7A8FBF" stop-opacity="0.35"/>
    </linearGradient>
  </defs>

  <rect x="24" y="24" width="464" height="464" rx="138" fill="url(#bg)"/>
  <rect x="24" y="24" width="464" height="464" rx="138" stroke="#2E3B57" stroke-width="10"/>

  <path d="M98 294C114 198 194 122 292 122C341 122 386 140 422 170" stroke="url(#ring)" stroke-width="18" stroke-linecap="round"/>
  <path d="M92 340C110 246 190 178 286 178C326 178 364 190 396 212" stroke="#3E4F72" stroke-opacity="0.55" stroke-width="14" stroke-linecap="round"/>

  <path d="M154 344L218 250L268 305L356 182" stroke="url(#core)" stroke-width="40" stroke-linecap="round" stroke-linejoin="round"/>
  <path d="M356 182L324 184M356 182L352 214" stroke="url(#core)" stroke-width="30" stroke-linecap="round"/>

  <circle cx="386" cy="132" r="18" fill="#E8FF92"/>
  <circle cx="386" cy="132" r="7" fill="#1D2A45"/>
</svg>
